<mxfile host="65bd71144e">
    <diagram id="ya9FcaW5qKWUzyB3rOu5" name="Page-1">
        <mxGraphModel dx="1031" dy="593" grid="1" gridSize="10" guides="1" tooltips="1" connect="1" arrows="1" fold="1" page="1" pageScale="1" pageWidth="850" pageHeight="1100" math="0" shadow="0">
            <root>
                <mxCell id="0"/>
                <mxCell id="1" parent="0"/>
                <mxCell id="16" value="" style="rounded=0;whiteSpace=wrap;html=1;" parent="1" vertex="1">
                    <mxGeometry x="80" y="190" width="910" height="450" as="geometry"/>
                </mxCell>
                <mxCell id="2" value="" style="whiteSpace=wrap;html=1;aspect=fixed;" parent="1" vertex="1">
                    <mxGeometry x="150" y="280" width="310" height="310" as="geometry"/>
                </mxCell>
                <mxCell id="3" value="" style="fontColor=#0066CC;verticalAlign=top;verticalLabelPosition=bottom;labelPosition=center;align=center;html=1;outlineConnect=0;fillColor=#CCCCCC;strokeColor=#6881B3;gradientColor=none;gradientDirection=north;strokeWidth=2;shape=mxgraph.networks.mainframe;" parent="1" vertex="1">
                    <mxGeometry x="410" y="220" width="80" height="100" as="geometry"/>
                </mxCell>
                <mxCell id="29" style="edgeStyle=none;html=1;" parent="1" source="5" target="7" edge="1">
                    <mxGeometry relative="1" as="geometry"/>
                </mxCell>
                <mxCell id="5" value="Container1&lt;div&gt;Hosting Service on Port 80&lt;/div&gt;" style="aspect=fixed;sketch=0;html=1;dashed=0;whitespace=wrap;verticalLabelPosition=bottom;verticalAlign=top;fillColor=#2875E2;strokeColor=#ffffff;points=[[0.005,0.63,0],[0.1,0.2,0],[0.9,0.2,0],[0.5,0,0],[0.995,0.63,0],[0.72,0.99,0],[0.5,1,0],[0.28,0.99,0]];shape=mxgraph.kubernetes.icon2;prIcon=pod" parent="1" vertex="1">
                    <mxGeometry x="290" y="378" width="50" height="48" as="geometry"/>
                </mxCell>
                <mxCell id="32" style="edgeStyle=none;html=1;startArrow=classic;startFill=1;fillColor=#d5e8d4;strokeColor=#82b366;" parent="1" source="7" target="22" edge="1">
                    <mxGeometry relative="1" as="geometry">
                        <Array as="points">
                            <mxPoint x="490" y="390"/>
                            <mxPoint x="610" y="390"/>
                        </Array>
                    </mxGeometry>
                </mxCell>
                <mxCell id="33" value="Traditional&amp;nbsp;&lt;div&gt;Server to Server&lt;/div&gt;&lt;div&gt;&amp;nbsp;Communication&lt;/div&gt;" style="edgeLabel;html=1;align=center;verticalAlign=middle;resizable=0;points=[];" vertex="1" connectable="0" parent="32">
                    <mxGeometry x="0.2161" y="-1" relative="1" as="geometry">
                        <mxPoint x="-22" y="-1" as="offset"/>
                    </mxGeometry>
                </mxCell>
                <mxCell id="7" value="Server-B: 10.10.10.11" style="text;html=1;align=center;verticalAlign=middle;resizable=0;points=[];autosize=1;strokeColor=none;fillColor=none;" parent="1" vertex="1">
                    <mxGeometry x="380" y="320" width="140" height="30" as="geometry"/>
                </mxCell>
                <mxCell id="18" value="" style="whiteSpace=wrap;html=1;aspect=fixed;" parent="1" vertex="1">
                    <mxGeometry x="640" y="270" width="310" height="310" as="geometry"/>
                </mxCell>
                <mxCell id="19" value="" style="fontColor=#0066CC;verticalAlign=top;verticalLabelPosition=bottom;labelPosition=center;align=center;html=1;outlineConnect=0;fillColor=#CCCCCC;strokeColor=#6881B3;gradientColor=none;gradientDirection=north;strokeWidth=2;shape=mxgraph.networks.mainframe;" parent="1" vertex="1">
                    <mxGeometry x="610" y="220" width="80" height="100" as="geometry"/>
                </mxCell>
                <mxCell id="20" value="Container2&lt;div&gt;Hosting Service on Port 80&lt;/div&gt;" style="aspect=fixed;sketch=0;html=1;dashed=0;whitespace=wrap;verticalLabelPosition=bottom;verticalAlign=top;fillColor=#2875E2;strokeColor=#ffffff;points=[[0.005,0.63,0],[0.1,0.2,0],[0.9,0.2,0],[0.5,0,0],[0.995,0.63,0],[0.72,0.99,0],[0.5,1,0],[0.28,0.99,0]];shape=mxgraph.kubernetes.icon2;prIcon=pod" parent="1" vertex="1">
                    <mxGeometry x="700" y="370" width="50" height="48" as="geometry"/>
                </mxCell>
                <mxCell id="22" value="Server-A: 10.10.10.12" style="text;html=1;align=center;verticalAlign=middle;resizable=0;points=[];autosize=1;strokeColor=none;fillColor=none;" parent="1" vertex="1">
                    <mxGeometry x="575" y="320" width="140" height="30" as="geometry"/>
                </mxCell>
                <mxCell id="23" value="Overlay Network:&lt;div&gt;172.180.0.11&lt;/div&gt;" style="text;html=1;align=center;verticalAlign=middle;resizable=0;points=[];autosize=1;strokeColor=none;fillColor=none;" parent="1" vertex="1">
                    <mxGeometry x="255" y="470" width="120" height="40" as="geometry"/>
                </mxCell>
                <mxCell id="24" value="Overlay Network:&lt;div&gt;172.180.0.12&lt;/div&gt;" style="text;html=1;align=center;verticalAlign=middle;resizable=0;points=[];autosize=1;strokeColor=none;fillColor=none;" parent="1" vertex="1">
                    <mxGeometry x="660" y="460" width="120" height="40" as="geometry"/>
                </mxCell>
                <mxCell id="30" style="edgeStyle=none;html=1;entryX=0.568;entryY=0.872;entryDx=0;entryDy=0;entryPerimeter=0;" parent="1" source="20" target="22" edge="1">
                    <mxGeometry relative="1" as="geometry"/>
                </mxCell>
                <mxCell id="35" value="Container2&lt;div&gt;Hosting Service on Port 1433&lt;/div&gt;" style="aspect=fixed;sketch=0;html=1;dashed=0;whitespace=wrap;verticalLabelPosition=bottom;verticalAlign=top;fillColor=#2875E2;strokeColor=#ffffff;points=[[0.005,0.63,0],[0.1,0.2,0],[0.9,0.2,0],[0.5,0,0],[0.995,0.63,0],[0.72,0.99,0],[0.5,1,0],[0.28,0.99,0]];shape=mxgraph.kubernetes.icon2;prIcon=pod" vertex="1" parent="1">
                    <mxGeometry x="840" y="412" width="50" height="48" as="geometry"/>
                </mxCell>
                <mxCell id="36" value="Overlay Network:&lt;div&gt;172.180.0.13&lt;/div&gt;" style="text;html=1;align=center;verticalAlign=middle;resizable=0;points=[];autosize=1;strokeColor=none;fillColor=none;" vertex="1" parent="1">
                    <mxGeometry x="805" y="500" width="120" height="40" as="geometry"/>
                </mxCell>
                <mxCell id="39" style="edgeStyle=none;html=1;dashed=1;fillColor=#dae8fc;strokeColor=#6c8ebf;" edge="1" parent="1" source="38" target="23">
                    <mxGeometry relative="1" as="geometry">
                        <Array as="points">
                            <mxPoint x="380" y="610"/>
                        </Array>
                    </mxGeometry>
                </mxCell>
                <mxCell id="40" style="edgeStyle=none;html=1;dashed=1;fillColor=#dae8fc;strokeColor=#6c8ebf;" edge="1" parent="1" source="38" target="24">
                    <mxGeometry relative="1" as="geometry">
                        <Array as="points">
                            <mxPoint x="710" y="590"/>
                        </Array>
                    </mxGeometry>
                </mxCell>
                <mxCell id="41" style="edgeStyle=none;html=1;dashed=1;fillColor=#dae8fc;strokeColor=#6c8ebf;" edge="1" parent="1" source="38" target="36">
                    <mxGeometry relative="1" as="geometry">
                        <Array as="points">
                            <mxPoint x="730" y="610"/>
                        </Array>
                    </mxGeometry>
                </mxCell>
                <mxCell id="38" value="&lt;span style=&quot;color: rgb(0, 0, 0); font-size: 11px; background-color: rgb(255, 255, 255);&quot;&gt;Overlay&lt;/span&gt;&lt;div style=&quot;font-size: 11px;&quot;&gt;Container to Container&lt;/div&gt;&lt;div style=&quot;font-size: 11px;&quot;&gt;Communication&lt;/div&gt;" style="text;html=1;align=center;verticalAlign=middle;resizable=0;points=[];autosize=1;strokeColor=none;fillColor=none;" vertex="1" parent="1">
                    <mxGeometry x="490" y="560" width="130" height="50" as="geometry"/>
                </mxCell>
            </root>
        </mxGraphModel>
    </diagram>
</mxfile>